<?xml version="1.0" encoding="UTF-8"?>
<svg id="Calque_1" data-name="Calque 1" xmlns="http://www.w3.org/2000/svg" version="1.1" viewBox="0 0 90 90">
  <defs>
    <style>
      .cls-0 {
        fill: #ffffff;
      }
      .cls-1 {
        fill: #000094;
        stroke-width: 0px;
        transform: translate(4px, 5px);
      }
    </style>
  </defs>
  <rect width="90" height="90" rx="10" ry="10" class="cls-0" />
  <path class="cls-1" d="M80.43,3.68l-.55-2.38-2.38-.55c-.42-.1-10.42-2.32-23.26,1.38-8.48,2.45-19.45,7.93-29.36,20.04-6.36-.13-17.64,1.2-23.82,11.19l-1.07,1.73,14.18,7.96.08-.15,8.51,8.51c-4.22-1.55-9.15-.64-12.53,2.75-3.69,3.7-6,15.38-6.62,18.87l-.98,5.5,5.5-.98c3.49-.62,15.17-2.93,18.87-6.62,3.39-3.38,4.3-8.31,2.75-12.53l8.51,8.51-.15.08,7.96,14.18,1.73-1.07c9.99-6.18,11.32-17.46,11.19-23.82,12.11-9.91,17.59-20.88,20.04-29.36,3.71-12.83,1.48-22.84,1.38-23.26ZM21.5,65.41c-.88.85-4.57,2.14-8.98,3.24,1.1-4.41,2.39-8.09,3.24-8.97.8-.8,1.85-1.2,2.9-1.2s2.07.39,2.86,1.18c1.58,1.59,1.57,4.17-.02,5.76ZM21.86,26.14c-2.61,3.66-5.12,7.82-7.45,12.57l-8.85-4.97c4.44-5.66,11.19-7.27,16.31-7.6ZM47.44,75.63l-4.97-8.85c4.75-2.33,8.92-4.84,12.57-7.45-.33,5.12-1.94,11.87-7.6,16.31ZM53.76,50.53l-5.33-5.33-2.76,2.76,4.95,4.95c-2.83,2.02-5.97,3.97-9.52,5.83l-18.65-18.65c1.85-3.55,3.81-6.7,5.83-9.52l11.17,11.17,2.76-2.76-11.56-11.56C46.85,7.27,66.31,7.22,73.21,7.96c.74,6.92.69,26.37-19.45,42.56Z"/>
  <path class="cls-1" d="M56.08,15.22c-2.64,0-5.12,1.03-6.98,2.89-3.85,3.85-3.85,10.11,0,13.96,1.86,1.86,4.34,2.89,6.98,2.89s5.12-1.03,6.98-2.89c3.85-3.85,3.85-10.11,0-13.96-1.86-1.86-4.34-2.89-6.98-2.89ZM60.31,29.32c-1.13,1.13-2.63,1.75-4.22,1.75s-3.1-.62-4.22-1.75c-1.13-1.13-1.75-2.63-1.75-4.22s.62-3.1,1.75-4.22c1.13-1.13,2.63-1.75,4.22-1.75s3.1.62,4.22,1.75c1.13,1.13,1.75,2.63,1.75,4.22s-.62,3.1-1.75,4.22Z"/>
</svg>